<?xml version="1.0" standalone="no"?>
<!DOCTYPE svg PUBLIC "-//W3C//DTD SVG 20010904//EN"
 "http://www.w3.org/TR/2001/REC-SVG-20010904/DTD/svg10.dtd">
<svg version="1.0" xmlns="http://www.w3.org/2000/svg"
 width="512.000000pt" height="512.000000pt" viewBox="0 0 512.000000 512.000000"
 preserveAspectRatio="xMidYMid meet">

<g transform="translate(0.000000,512.000000) scale(0.100000,-0.100000)"
fill="#000000" stroke="none">
<path d="M0 4054 l0 -1065 23 25 c12 14 180 116 372 227 417 240 403 232 435
231 14 0 107 -47 206 -104 98 -58 267 -155 374 -217 107 -61 205 -123 218
-137 l22 -25 0 -418 0 -417 154 -88 c85 -48 161 -95 171 -106 27 -29 23 -79
-9 -107 -15 -12 -37 -23 -50 -23 -12 0 -93 40 -179 90 -86 50 -161 90 -165 90
-4 0 -167 -92 -362 -205 -236 -136 -365 -205 -384 -205 -33 0 -767 417 -803
457 l-23 24 0 -1040 0 -1041 2560 0 2560 0 0 1041 0 1040 -22 -24 c-37 -40
-770 -457 -803 -457 -19 0 -149 70 -383 205 -195 113 -358 205 -362 205 -4 0
-78 -41 -166 -90 -87 -50 -168 -90 -180 -90 -12 0 -33 9 -48 21 -20 16 -26 29
-26 59 0 47 9 55 203 166 l137 78 0 418 0 417 23 25 c36 41 767 459 802 459
35 0 766 -418 803 -459 l22 -25 0 1065 0 1066 -2560 0 -2560 0 0 -1066z m2965
656 c211 -121 391 -230 401 -241 18 -20 19 -46 22 -443 l3 -422 168 -97 c92
-53 175 -105 184 -115 27 -30 22 -87 -9 -111 -15 -12 -36 -21 -48 -21 -12 0
-102 47 -201 104 l-179 104 -41 -23 c-22 -13 -182 -106 -355 -206 -246 -143
-323 -183 -350 -182 -27 0 -112 45 -385 203 -192 112 -354 203 -360 203 -5 0
-89 -46 -186 -102 -97 -55 -185 -101 -196 -101 -11 0 -32 9 -47 21 -35 27 -36
86 -3 116 12 11 95 62 184 114 l162 93 3 423 c3 410 4 423 23 443 35 34 778
460 804 460 14 0 191 -96 406 -220z m5 -2865 c206 -119 384 -225 395 -236 19
-19 20 -33 20 -478 0 -435 -1 -460 -19 -480 -28 -31 -780 -461 -806 -461 -26
0 -761 420 -800 457 l-25 23 0 460 c0 446 1 460 20 479 11 11 178 110 370 221
446 258 416 242 445 236 14 -3 194 -102 400 -221z"/>
<path d="M2268 4591 c-158 -91 -287 -168 -287 -171 0 -8 566 -330 580 -330 13
0 578 322 579 330 0 5 -566 333 -579 336 -3 1 -135 -73 -293 -165z"/>
<path d="M1890 3990 l0 -291 23 12 c12 6 67 38 123 70 109 64 146 72 185 40
26 -21 32 -79 10 -105 -8 -9 -67 -46 -132 -84 -89 -50 -115 -70 -106 -78 7 -6
109 -67 227 -134 118 -68 225 -130 238 -138 l22 -14 0 338 0 339 -287 165
c-157 91 -290 167 -295 168 -4 2 -8 -127 -8 -288z"/>
<path d="M3154 4242 c-33 -21 -162 -95 -287 -167 l-226 -130 -1 -338 0 -339
33 20 c17 11 124 72 237 137 113 65 210 123 217 129 9 8 -17 27 -107 79 -65
38 -125 76 -132 84 -21 25 -15 83 11 104 40 32 76 24 196 -46 61 -36 117 -65
123 -65 9 0 12 74 12 285 0 157 -3 285 -7 284 -5 0 -35 -17 -69 -37z"/>
<path d="M2271 1730 c-151 -88 -278 -163 -282 -167 -4 -4 122 -83 282 -175
l289 -167 290 167 c221 127 287 169 277 178 -23 21 -555 324 -569 323 -7 0
-136 -72 -287 -159z"/>
<path d="M1892 1078 l3 -332 290 -167 290 -168 3 327 c1 180 0 332 -2 338 -5
12 -559 334 -576 334 -7 0 -9 -104 -8 -332z"/>
<path d="M2931 1250 c-151 -88 -278 -163 -283 -168 -4 -4 -7 -157 -6 -340 l3
-331 290 167 290 167 3 333 c2 262 0 332 -10 332 -7 -1 -136 -73 -287 -160z"/>
<path d="M540 3139 c-151 -88 -280 -163 -287 -167 -6 -4 111 -78 274 -172 158
-91 289 -166 294 -168 5 -2 572 319 587 332 4 4 -574 336 -584 335 -5 0 -133
-72 -284 -160z"/>
<path d="M4010 3139 c-151 -88 -280 -163 -287 -167 -7 -4 102 -73 274 -172
157 -91 289 -166 293 -168 5 -2 566 316 587 333 4 3 -575 335 -584 335 -4 -1
-132 -73 -283 -161z"/>
<path d="M160 2487 l0 -333 289 -167 c158 -92 291 -167 295 -167 3 0 6 150 6
334 l0 333 -289 167 c-158 91 -291 166 -295 166 -3 0 -6 -150 -6 -333z"/>
<path d="M1201 2660 c-151 -88 -278 -163 -283 -168 -4 -4 -7 -157 -6 -340 l3
-331 235 135 c129 75 241 139 248 143 9 5 -34 36 -130 91 -78 46 -148 90 -155
99 -20 27 -15 75 10 99 39 36 75 28 198 -43 61 -36 124 -72 140 -81 l29 -15 0
286 c0 157 -3 285 -7 285 -5 -1 -131 -73 -282 -160z"/>
<path d="M3630 2535 l0 -286 29 15 c16 9 79 45 140 81 128 75 166 82 200 39
30 -38 27 -77 -9 -107 -16 -14 -86 -57 -155 -97 l-126 -72 193 -112 c106 -62
219 -127 251 -145 l57 -33 -2 339 -3 338 -280 162 c-154 89 -283 162 -287 163
-5 0 -8 -128 -8 -285z"/>
<path d="M4658 2653 l-288 -167 0 -333 c0 -183 3 -333 6 -333 3 0 136 75 295
167 l289 166 0 334 c0 183 -3 333 -7 333 -5 -1 -137 -76 -295 -167z"/>
</g>
</svg>
