<?xml version="1.0" standalone="no"?>
<!DOCTYPE svg PUBLIC "-//W3C//DTD SVG 20010904//EN"
 "http://www.w3.org/TR/2001/REC-SVG-20010904/DTD/svg10.dtd">
<svg version="1.0" xmlns="http://www.w3.org/2000/svg"
 width="512.000000pt" height="512.000000pt" viewBox="0 0 512.000000 512.000000"
 preserveAspectRatio="xMidYMid meet">

<g transform="translate(0.000000,512.000000) scale(0.100000,-0.100000)"
fill="#000000" stroke="none">
<path d="M1 4883 l0 -238 19 73 c49 188 194 333 382 382 l73 19 -237 0 -238 1
1 -237z"/>
<path d="M4718 5100 c190 -50 339 -203 386 -396 14 -57 14 -49 15 179 l1 237
-237 -1 -238 0 73 -19z"/>
<path d="M430 4984 c-145 -39 -256 -152 -294 -299 -13 -47 -16 -120 -16 -352
l0 -293 2441 0 2440 0 -3 318 c-3 302 -4 320 -26 372 -46 112 -129 196 -242
242 l-55 23 -2095 2 c-1821 2 -2102 0 -2150 -13z m270 -326 c132 -67 132 -249
0 -315 -24 -13 -60 -23 -80 -23 -20 0 -56 10 -80 23 -132 66 -132 248 0 315
24 12 60 22 80 22 20 0 56 -10 80 -22z m640 0 c132 -67 132 -249 0 -315 -24
-13 -60 -23 -80 -23 -20 0 -56 10 -80 23 -132 66 -132 248 0 315 24 12 60 22
80 22 20 0 56 -10 80 -22z m640 0 c132 -67 132 -249 0 -315 -24 -13 -60 -23
-80 -23 -20 0 -56 10 -80 23 -132 66 -132 248 0 315 24 12 60 22 80 22 20 0
56 -10 80 -22z m2560 0 c132 -67 132 -249 0 -315 -43 -23 -51 -23 -400 -23
-349 0 -357 0 -400 23 -132 66 -132 248 0 315 43 22 51 22 400 22 349 0 357 0
400 -22z"/>
<path d="M580 4540 c-11 -11 -20 -29 -20 -40 0 -26 34 -60 60 -60 26 0 60 34
60 60 0 11 -9 29 -20 40 -11 11 -29 20 -40 20 -11 0 -29 -9 -40 -20z"/>
<path d="M1220 4540 c-11 -11 -20 -29 -20 -40 0 -11 9 -29 20 -40 11 -11 29
-20 40 -20 11 0 29 9 40 20 11 11 20 29 20 40 0 11 -9 29 -20 40 -11 11 -29
20 -40 20 -11 0 -29 -9 -40 -20z"/>
<path d="M1860 4540 c-11 -11 -20 -29 -20 -40 0 -11 9 -29 20 -40 11 -11 29
-20 40 -20 11 0 29 9 40 20 11 11 20 29 20 40 0 11 -9 29 -20 40 -11 11 -29
20 -40 20 -11 0 -29 -9 -40 -20z"/>
<path d="M3780 4540 c-11 -11 -20 -29 -20 -40 0 -11 9 -29 20 -40 19 -19 33
-20 360 -20 327 0 341 1 360 20 11 11 20 29 20 40 0 11 -9 29 -20 40 -19 19
-33 20 -360 20 -327 0 -341 -1 -360 -20z"/>
<path d="M122 2463 l3 -1458 23 -55 c46 -113 129 -196 242 -242 53 -22 68 -23
412 -26 l358 -3 2 1068 3 1068 25 50 c35 71 547 577 627 620 l57 30 930 0
c925 0 931 0 977 -21 66 -31 114 -78 146 -142 l28 -57 3 -1308 2 -1308 358 3
c344 3 359 4 412 26 113 46 196 129 242 242 l23 55 3 1458 2 1457 -2440 0
-2440 0 2 -1457z"/>
<path d="M1960 3115 c0 -234 -3 -292 -15 -322 -21 -50 -42 -72 -90 -94 -36
-17 -69 -19 -307 -19 l-268 0 0 -1205 c0 -1062 2 -1210 15 -1242 21 -50 42
-72 90 -94 38 -18 95 -19 1175 -19 1080 0 1137 1 1175 19 48 22 69 44 90 94
13 32 15 208 15 1527 0 1319 -2 1495 -15 1527 -21 50 -42 72 -90 94 -38 18
-87 19 -907 19 l-868 0 0 -285z m441 -1036 c20 -20 20 -28 17 -347 -3 -323 -3
-328 -27 -376 -31 -63 -90 -122 -150 -149 -71 -33 -179 -30 -253 6 -95 46
-156 135 -165 237 -5 52 -3 59 18 74 51 35 88 11 100 -63 14 -92 90 -160 178
-161 52 0 118 37 149 83 l27 40 3 321 c2 311 3 322 23 339 28 23 54 22 80 -4z
m780 -7 c66 -34 110 -98 117 -171 4 -45 2 -51 -23 -67 -36 -24 -76 -10 -89 31
-31 104 -47 115 -168 115 -92 0 -138 -16 -171 -61 -27 -38 -32 -97 -10 -138
32 -61 61 -74 175 -81 115 -8 161 -25 215 -82 121 -126 85 -328 -72 -411 -49
-26 -224 -36 -294 -17 -126 34 -215 230 -119 264 39 14 74 -12 82 -62 4 -28
16 -48 37 -66 28 -24 38 -26 122 -26 74 0 98 4 125 20 68 42 91 124 52 188
-33 53 -74 72 -161 72 -102 0 -162 22 -220 80 -48 48 -79 119 -79 180 0 61 31
132 79 180 63 63 110 78 242 79 98 1 111 -1 160 -27z"/>
<path d="M1579 3107 c-141 -139 -264 -264 -274 -279 l-17 -28 256 0 c243 0
257 1 276 20 19 19 20 33 20 280 0 143 -1 260 -2 260 -2 -1 -118 -114 -259
-253z"/>
<path d="M1 518 l-1 -518 708 0 c684 1 705 1 657 18 -65 22 -109 54 -146 105
-47 65 -59 123 -59 289 l0 148 -337 0 c-374 0 -415 5 -531 62 -78 39 -175 131
-220 210 -18 31 -41 89 -52 130 l-19 73 0 -517z"/>
<path d="M5103 975 c-30 -141 -145 -289 -274 -352 -117 -58 -158 -63 -531 -63
l-338 0 0 -148 c0 -166 -12 -224 -59 -289 -37 -51 -81 -83 -146 -105 -48 -17
-27 -17 658 -18 l707 0 0 515 c0 283 -1 515 -3 515 -2 0 -8 -25 -14 -55z"/>
</g>
</svg>
