<?xml version="1.0" standalone="no"?>
<!DOCTYPE svg PUBLIC "-//W3C//DTD SVG 20010904//EN"
 "http://www.w3.org/TR/2001/REC-SVG-20010904/DTD/svg10.dtd">
<svg version="1.0" xmlns="http://www.w3.org/2000/svg"
 width="512.000000pt" height="512.000000pt" viewBox="0 0 512.000000 512.000000"
 preserveAspectRatio="xMidYMid meet">

<g transform="translate(0.000000,512.000000) scale(0.100000,-0.100000)"
fill="#000000" stroke="none">
<path d="M0 2560 l0 -2560 1248 1 c1061 0 1238 3 1187 14 -291 64 -567 384
-745 865 -24 63 -43 116 -44 117 -1 0 -35 -5 -76 -13 -231 -44 -487 -55 -668
-28 -207 30 -356 94 -470 199 -229 213 -250 528 -60 913 58 117 182 302 278
417 36 43 70 85 77 94 10 13 2 28 -48 91 -148 184 -287 421 -339 580 -158 476
61 837 561 925 182 32 433 28 654 -11 44 -8 85 -14 91 -14 6 0 28 46 48 103
21 56 65 156 98 222 177 356 402 577 643 630 51 11 -126 14 -1187 14 l-1248 1
0 -2560z"/>
<path d="M2685 5105 c241 -53 466 -274 643 -630 33 -66 77 -166 98 -222 20
-57 42 -103 48 -103 6 0 47 6 91 14 520 92 960 -5 1144 -251 134 -178 158
-404 71 -663 -55 -163 -191 -396 -339 -580 -50 -63 -58 -78 -48 -91 7 -9 40
-50 75 -90 87 -103 230 -319 285 -430 185 -379 162 -693 -65 -904 -215 -199
-596 -262 -1093 -179 -49 8 -97 17 -106 20 -11 3 -21 -13 -39 -63 -37 -108
-126 -306 -180 -398 -169 -294 -369 -472 -585 -520 -51 -11 126 -14 1188 -14
l1247 -1 0 2560 0 2560 -1247 -1 c-1062 0 -1239 -3 -1188 -14z"/>
<path d="M2490 4811 c-189 -62 -376 -300 -510 -646 -34 -91 -35 -95 -16 -95
26 0 309 -97 454 -154 l143 -58 142 58 c143 57 427 154 453 154 20 0 18 7 -22
106 -124 310 -287 534 -439 608 -62 30 -157 43 -205 27z"/>
<path d="M1030 3894 c-165 -20 -305 -77 -369 -150 -57 -65 -75 -126 -68 -238
9 -171 105 -371 294 -614 l64 -82 92 82 c90 82 233 199 352 290 l60 45 23 159
c12 88 38 229 56 314 19 85 33 156 32 157 -2 2 -47 10 -102 18 -99 15 -368 27
-434 19z"/>
<path d="M3765 3890 c-44 -5 -111 -14 -148 -21 -60 -10 -67 -13 -62 -30 16
-50 75 -358 91 -478 l18 -133 81 -61 c109 -83 222 -176 332 -275 l92 -82 64
82 c240 308 342 583 281 761 -35 104 -150 185 -314 222 -89 20 -319 28 -435
15z"/>
<path d="M1850 3743 c-10 -42 -60 -280 -60 -289 0 -1 55 30 123 70 67 40 155
90 195 111 39 22 72 43 72 47 0 5 -298 108 -314 108 -2 0 -9 -21 -16 -47z"/>
<path d="M3093 3739 c-84 -27 -153 -53 -153 -57 0 -4 48 -34 108 -66 59 -32
146 -83 195 -112 48 -29 87 -52 87 -50 0 9 -50 247 -60 289 -7 26 -15 47 -19
46 -3 0 -75 -22 -158 -50z"/>
<path d="M2373 3435 c-183 -94 -427 -236 -560 -326 l-71 -48 -9 -78 c-14 -129
-10 -834 5 -860 24 -44 379 -265 659 -410 l162 -84 138 70 c267 135 660 378
684 423 10 18 13 110 14 403 0 209 -4 415 -8 458 l-9 79 -111 73 c-160 104
-368 224 -549 316 -86 43 -158 79 -160 79 -2 0 -85 -43 -185 -95z m339 -439
c86 -30 150 -77 209 -150 66 -81 91 -150 96 -266 4 -79 1 -106 -16 -158 -51
-151 -152 -252 -302 -302 -85 -29 -225 -24 -311 10 -70 28 -160 99 -206 163
-101 141 -110 359 -19 507 113 184 346 267 549 196z"/>
<path d="M1355 2768 c-33 -28 -91 -80 -130 -115 l-70 -64 50 -46 c28 -25 86
-78 130 -117 l80 -70 3 117 c1 64 1 168 0 231 l-3 114 -60 -50z"/>
<path d="M3700 2591 c0 -196 2 -231 14 -224 24 14 246 214 246 222 0 8 -94 94
-202 185 l-58 48 0 -231z"/>
<path d="M867 2278 c-212 -264 -320 -489 -321 -673 -1 -79 2 -97 27 -147 46
-94 140 -157 292 -195 100 -25 415 -24 575 1 63 10 116 20 118 21 2 2 -10 67
-27 146 -25 124 -53 296 -76 472 -6 45 -10 50 -83 106 -110 84 -213 170 -324
272 -53 49 -99 89 -101 89 -3 0 -39 -42 -80 -92z"/>
<path d="M4090 2298 c-81 -77 -258 -226 -357 -301 -57 -44 -62 -51 -68 -95
-23 -175 -51 -347 -76 -471 -17 -79 -29 -144 -27 -146 2 -1 55 -11 118 -21 84
-13 168 -19 310 -19 173 0 205 3 280 23 147 40 232 98 277 190 25 50 28 68 27
147 -1 144 -64 305 -197 505 -56 84 -195 260 -205 260 -4 -1 -41 -33 -82 -72z"/>
<path d="M1786 1689 c7 -35 50 -254 61 -301 3 -16 9 -28 13 -28 8 0 333 110
337 114 2 2 -25 18 -59 36 -63 34 -279 160 -330 194 l-28 18 6 -33z"/>
<path d="M3230 1653 c-58 -35 -151 -89 -207 -120 -57 -31 -102 -57 -100 -59 4
-4 329 -114 336 -114 10 0 85 350 78 356 -1 1 -49 -27 -107 -63z"/>
<path d="M2425 1244 c-71 -31 -208 -82 -304 -114 -95 -33 -175 -61 -177 -63
-8 -7 65 -186 120 -296 107 -215 229 -362 356 -431 58 -31 73 -35 140 -35 63
0 85 5 135 30 75 38 184 144 255 249 91 137 243 468 223 486 -4 4 -48 19 -98
35 -109 33 -290 100 -419 154 -52 23 -96 41 -98 41 -2 -1 -61 -26 -133 -56z"/>
</g>
</svg>
