<?xml version="1.0" standalone="no"?>
<!DOCTYPE svg PUBLIC "-//W3C//DTD SVG 20010904//EN"
 "http://www.w3.org/TR/2001/REC-SVG-20010904/DTD/svg10.dtd">
<svg version="1.0" xmlns="http://www.w3.org/2000/svg"
 width="512.000000pt" height="512.000000pt" viewBox="0 0 512.000000 512.000000"
 preserveAspectRatio="xMidYMid meet">

<g transform="translate(0.000000,512.000000) scale(0.100000,-0.100000)"
fill="#000000" stroke="none">
<path d="M2505 5101 c-49 -31 -1213 -1204 -1224 -1233 -30 -80 57 -166 146
-143 19 4 192 171 520 498 l493 491 2 -2316 3 -2317 21 -28 c11 -15 39 -35 62
-43 37 -13 45 -12 76 3 19 9 43 29 53 44 17 26 18 133 21 2342 l2 2315 488
-486 c268 -268 500 -492 515 -497 65 -25 126 0 152 62 29 70 40 57 -602 699
-329 330 -610 606 -625 614 -36 19 -67 18 -103 -5z"/>
</g>
</svg>
